<svg width="52" height="51" viewBox="0 0 52 51" fill="none" xmlns="http://www.w3.org/2000/svg">
<path d="M17.4996 25.5157C17.4914 20.822 21.2903 17.009 25.9831 17.0008C30.6768 16.9916 34.4904 20.7889 34.4996 25.4835C34.5087 30.178 30.7097 33.9902 26.0152 33.9993C21.3224 34.0083 17.5087 30.2103 17.4996 25.5157ZM12.9068 25.5247C12.9209 32.7566 18.7943 38.6062 26.0244 38.5921C33.2553 38.5781 39.1081 32.7062 39.0941 25.4743C39.08 18.245 33.2058 12.3921 25.974 12.4062C18.7439 12.4202 12.8928 18.2946 12.9068 25.5247ZM36.5247 11.8692C36.5279 13.5579 37.901 14.9253 39.5898 14.922C41.2793 14.9187 42.6468 13.5463 42.6443 11.8576C42.641 10.1688 41.2679 8.80061 39.5783 8.8039C37.8887 8.80718 36.5214 10.1803 36.5247 11.8692ZM15.7365 46.2743C13.2505 46.166 11.9005 45.753 11.0008 45.4068C9.80937 44.9457 8.95921 44.393 8.06441 43.5049C7.17131 42.6134 6.61689 41.7657 6.15171 40.5766C5.80228 39.677 5.38173 38.3286 5.26519 35.8425C5.13878 33.1548 5.10989 32.3485 5.09754 25.5397C5.08429 18.7325 5.1091 17.9261 5.22644 15.236C5.33292 12.7515 5.74859 11.3998 6.09394 10.5009C6.55493 9.30792 7.10607 8.45935 7.99588 7.56455C8.88729 6.66986 9.73496 6.11703 10.9247 5.65185C11.8237 5.30073 13.172 4.88346 15.6573 4.76533C18.3465 4.63813 19.1521 4.61083 25.9592 4.59759C32.7678 4.58444 33.5741 4.60834 36.2644 4.72658C38.7486 4.83476 40.1003 5.24624 40.9985 5.59408C42.1906 6.05507 43.0408 6.60452 43.9348 7.49602C44.8287 8.38753 45.3831 9.23351 45.8483 10.4257C46.1993 11.3222 46.6167 12.6722 46.734 15.1566C46.862 17.846 46.891 18.6524 46.9034 25.4595C46.9165 32.2683 46.8917 33.0748 46.7737 35.7632C46.6654 38.2493 46.2531 39.6002 45.9062 40.5007C45.4451 41.6913 44.894 42.5414 44.0033 43.4363C43.1127 44.3277 42.265 44.8838 41.0745 45.3489C40.1771 45.6993 38.8272 46.1173 36.3437 46.2355C33.6544 46.3619 32.8488 46.3908 26.0393 46.4032C19.2321 46.4164 18.4267 46.3908 15.7365 46.2743ZM15.4391 0.176616C12.7258 0.304614 10.8727 0.73921 9.25325 1.37372C7.57692 2.02726 6.15589 2.90313 4.74233 4.32256C3.32698 5.7428 2.45779 7.16632 1.80923 8.84434C1.18139 10.4679 0.755862 12.3219 0.636031 15.0369C0.517098 17.7568 0.489805 18.6243 0.503053 25.5488C0.516301 32.4724 0.546781 33.3416 0.676473 36.0622C0.806165 38.7747 1.23917 40.6271 1.87368 42.2473C2.52802 43.9237 3.40299 45.344 4.82322 46.7584C6.24265 48.173 7.66707 49.0413 9.34589 49.6907C10.9677 50.3178 12.8225 50.7449 15.5366 50.8639C18.2565 50.9837 19.1248 51.0101 26.0475 50.9969C32.9736 50.9837 33.842 50.9532 36.5618 50.8243C39.2751 50.6945 41.1265 50.26 42.7476 49.6271C44.4239 48.971 45.8449 48.0978 47.2587 46.6775C48.6722 45.258 49.5414 43.8337 50.19 42.1548C50.8179 40.5329 51.245 38.6781 51.3631 35.9656C51.4821 33.2441 51.5103 32.3749 51.497 25.4512C51.4837 18.5268 51.4524 17.6593 51.3235 14.9401C51.1946 12.2253 50.76 10.3736 50.1263 8.7526C49.4712 7.07627 48.5971 5.65683 47.1777 4.24158C45.7583 2.82792 44.3338 1.95704 42.655 1.31017C41.0324 0.682134 39.1783 0.254211 36.4643 0.136871C33.7444 0.0163439 32.8761 -0.0101522 25.9508 0.00309584C19.0272 0.0163439 18.1589 0.0460275 15.4391 0.176616Z" fill="#FFFBFF"/>
</svg>
